{
  "accessors": [
    {
      "bufferView": 2,
      "componentType": 5126,
      "count": 488,
      "max": [
        0.9902600049972534,
        0.22513285279273987,
        1.0737378597259521
      ],
      "min": [
        -1.0097399950027466,
        -0.2512761950492859,
        -0.9262620806694031
      ],
      "type": "VEC3"
    },
    {
      "bufferView": 2,
      "byteOffset": 5856,
      "componentType": 5126,
      "count": 488,
      "max": [
        1.0,
        1.0,
        1.0
      ],
      "min": [
        -1.0,
        -1.0,
        -1.0
      ],
      "type": "VEC3"
    },
    {
      "bufferView": 1,
      "componentType": 5126,
      "count": 488,
      "max": [
        1.0,
        1.0
      ],
      "min": [
        0.0,
        0.0
      ],
      "type": "VEC2"
    },
    {
      "bufferView": 0,
      "componentType": 5125,
      "count": 954,
      "type": "SCALAR"
    },
    {
      "bufferView": 2,
      "byteOffset": 11712,
      "componentType": 5126,
      "count": 26,
      "max": [
        0.9285345077514648,
        0.22513285279273987,
        1.0120123624801636
      ],
      "min": [
        -0.948014497756958,
        0.22513285279273987,
        -0.8645365834236145
      ],
      "type": "VEC3"
    },
    {
      "bufferView": 2,
      "byteOffset": 12024,
      "componentType": 5126,
      "count": 26,
      "max": [
        0.0,
        1.0,
        -0.0
      ],
      "min": [
        0.0,
        1.0,
        -0.0
      ],
      "type": "VEC3"
    },
    {
      "bufferView": 1,
      "byteOffset": 3904,
      "componentType": 5126,
      "count": 26,
      "max": [
        0.9706615209579468,
        0.9706611037254333
      ],
      "min": [
        0.0293388944119215,
        0.029338538646697998
      ],
      "type": "VEC2"
    },
    {
      "bufferView": 0,
      "byteOffset": 3816,
      "componentType": 5125,
      "count": 72,
      "type": "SCALAR"
    },
    {
      "bufferView": 2,
      "byteOffset": 12336,
      "componentType": 5126,
      "count": 158,
      "max": [
        0.8602840304374695,
        0.09615141153335571,
        -0.30418044328689575
      ],
      "min": [
        0.7885733246803284,
        -0.12229476869106293,
        -0.49517980217933655
      ],
      "type": "VEC3"
    },
    {
      "bufferView": 2,
      "byteOffset": 14232,
      "componentType": 5126,
      "count": 158,
      "max": [
        1.0,
        0.9978528022766113,
        0.9892560243606567
      ],
      "min": [
        0.0,
        -0.6256214380264282,
        -0.9892560243606567
      ],
      "type": "VEC3"
    },
    {
      "bufferView": 1,
      "byteOffset": 4112,
      "componentType": 5126,
      "count": 158,
      "max": [
        1.0000001192092896,
        0.9900000095367432
      ],
      "min": [
        0.0,
        0.2155410647392273
      ],
      "type": "VEC2"
    },
    {
      "bufferView": 0,
      "byteOffset": 4104,
      "componentType": 5125,
      "count": 336,
      "type": "SCALAR"
    },
    {
      "bufferView": 2,
      "byteOffset": 16128,
      "componentType": 5126,
      "count": 448,
      "max": [
        0.9999985694885254,
        0.5383238196372986,
        0.9999704957008362
      ],
      "min": [
        -1.0000014305114746,
        -1.6539325714111328,
        -1.000029444694519
      ],
      "type": "VEC3"
    },
    {
      "bufferView": 2,
      "byteOffset": 21504,
      "componentType": 5126,
      "count": 448,
      "max": [
        0.9951865673065186,
        1.0,
        0.9951865673065186
      ],
      "min": [
        -0.9951865673065186,
        -1.0,
        -0.9951865673065186
      ],
      "type": "VEC3"
    },
    {
      "bufferView": 1,
      "byteOffset": 5376,
      "componentType": 5126,
      "count": 448,
      "max": [
        1.0,
        0.9900000095367432
      ],
      "min": [
        0.0,
        0.0
      ],
      "type": "VEC2"
    },
    {
      "bufferView": 0,
      "byteOffset": 5448,
      "componentType": 5125,
      "count": 756,
      "type": "SCALAR"
    },
    {
      "bufferView": 2,
      "byteOffset": 26880,
      "componentType": 5126,
      "count": 232,
      "max": [
        0.8412173986434937,
        0.24634352326393127,
        0.10215401649475098
      ],
      "min": [
        -0.8404415845870972,
        -0.23006552457809448,
        -0.10084599256515503
      ],
      "type": "VEC3"
    },
    {
      "bufferView": 2,
      "byteOffset": 29664,
      "componentType": 5126,
      "count": 232,
      "max": [
        1.0,
        1.0,
        1.0
      ],
      "min": [
        -1.0,
        -1.0,
        -1.0
      ],
      "type": "VEC3"
    },
    {
      "bufferView": 1,
      "byteOffset": 8960,
      "componentType": 5126,
      "count": 232,
      "max": [
        0.9204147458076477,
        1.0
      ],
      "min": [
        0.0,
        1.0
      ],
      "type": "VEC2"
    },
    {
      "bufferView": 0,
      "byteOffset": 8472,
      "componentType": 5125,
      "count": 690,
      "type": "SCALAR"
    },
    {
      "bufferView": 2,
      "byteOffset": 32448,
      "componentType": 5126,
      "count": 1312,
      "max": [
        0.7002468705177307,
        0.1788509488105774,
        0.0961233377456665
      ],
      "min": [
        -0.6994710564613342,
        -0.05173766613006592,
        -0.10084599256515503
      ],
      "type": "VEC3"
    },
    {
      "bufferView": 2,
      "byteOffset": 48192,
      "componentType": 5126,
      "count": 1312,
      "max": [
        1.0,
        1.0,
        1.0
      ],
      "min": [
        -1.0,
        -1.0,
        -0.0
      ],
      "type": "VEC3"
    },
    {
      "bufferView": 1,
      "byteOffset": 10816,
      "componentType": 5126,
      "count": 1312,
      "max": [
        1.0,
        1.0
      ],
      "min": [
        0.0,
        0.4619936943054199
      ],
      "type": "VEC2"
    },
    {
      "bufferView": 0,
      "byteOffset": 11232,
      "componentType": 5125,
      "count": 2430,
      "type": "SCALAR"
    },
    {
      "bufferView": 2,
      "byteOffset": 63936,
      "componentType": 5126,
      "count": 1120,
      "max": [
        0.4651048183441162,
        0.14917829632759094,
        0.09138637781143188
      ],
      "min": [
        -0.6741313338279724,
        0.1302163302898407,
        0.06655550003051758
      ],
      "type": "VEC3"
    },
    {
      "bufferView": 2,
      "byteOffset": 77376,
      "componentType": 5126,
      "count": 1120,
      "max": [
        0.9951865673065186,
        0.9951865673065186,
        1.0
      ],
      "min": [
        -0.9951865673065186,
        -0.9951865673065186,
        -0.0
      ],
      "type": "VEC3"
    },
    {
      "bufferView": 1,
      "byteOffset": 21312,
      "componentType": 5126,
      "count": 1120,
      "max": [
        0.9900000095367432,
        0.9717310667037964
      ],
      "min": [
        0.5099999904632568,
        0.5099999904632568
      ],
      "type": "VEC2"
    },
    {
      "bufferView": 0,
      "byteOffset": 20952,
      "componentType": 5125,
      "count": 2370,
      "type": "SCALAR"
    },
    {
      "bufferView": 2,
      "byteOffset": 90816,
      "componentType": 5126,
      "count": 100,
      "max": [
        0.6832841634750366,
        0.132132887840271,
        -0.10084599256515503
      ],
      "min": [
        -0.6814286112785339,
        -0.019862592220306396,
        -0.10084599256515503
      ],
      "type": "VEC3"
    },
    {
      "bufferView": 2,
      "byteOffset": 92016,
      "componentType": 5126,
      "count": 100,
      "max": [
        0.0,
        0.0,
        1.0
      ],
      "min": [
        0.0,
        0.0,
        1.0
      ],
      "type": "VEC3"
    },
    {
      "bufferView": 1,
      "byteOffset": 30272,
      "componentType": 5126,
      "count": 100,
      "max": [
        0.0,
        1.0
      ],
      "min": [
        0.0,
        1.0
      ],
      "type": "VEC2"
    },
    {
      "bufferView": 0,
      "byteOffset": 30432,
      "componentType": 5125,
      "count": 270,
      "type": "SCALAR"
    },
    {
      "bufferView": 2,
      "byteOffset": 93216,
      "componentType": 5126,
      "count": 6144,
      "max": [
        1.0,
        0.12530559301376343,
        1.0
      ],
      "min": [
        -1.0,
        -0.1253056824207306,
        -1.0
      ],
      "type": "VEC3"
    },
    {
      "bufferView": 2,
      "byteOffset": 166944,
      "componentType": 5126,
      "count": 6144,
      "max": [
        1.0,
        1.0,
        1.0
      ],
      "min": [
        -1.0,
        -1.0,
        -1.0
      ],
      "type": "VEC3"
    },
    {
      "bufferView": 1,
      "byteOffset": 31072,
      "componentType": 5126,
      "count": 6144,
      "max": [
        1.0000001192092896,
        1.0
      ],
      "min": [
        0.0,
        -1.1920928955078125e-07
      ],
      "type": "VEC2"
    },
    {
      "bufferView": 0,
      "byteOffset": 31512,
      "componentType": 5125,
      "count": 9204,
      "type": "SCALAR"
    },
    {
      "bufferView": 2,
      "byteOffset": 240672,
      "componentType": 5126,
      "count": 30720,
      "max": [
        5.079937934875488,
        0.12530452013015747,
        1.0
      ],
      "min": [
        -5.080061912536621,
        -0.12530675530433655,
        -1.0
      ],
      "type": "VEC3"
    },
    {
      "bufferView": 2,
      "byteOffset": 609312,
      "componentType": 5126,
      "count": 30720,
      "max": [
        1.0,
        1.0,
        1.0
      ],
      "min": [
        -1.0,
        -1.0,
        -1.0
      ],
      "type": "VEC3"
    },
    {
      "bufferView": 1,
      "byteOffset": 80224,
      "componentType": 5126,
      "count": 30720,
      "max": [
        1.0000001192092896,
        1.0
      ],
      "min": [
        0.0,
        -1.1920928955078125e-07
      ],
      "type": "VEC2"
    },
    {
      "bufferView": 0,
      "byteOffset": 68328,
      "componentType": 5125,
      "count": 46020,
      "type": "SCALAR"
    },
    {
      "bufferView": 2,
      "byteOffset": 977952,
      "componentType": 5126,
      "count": 18,
      "max": [
        0.07738012075424194,
        0.00800000037997961,
        0.2634216248989105
      ],
      "min": [
        -0.020619884133338928,
        -0.00800000037997961,
        -0.4185784161090851
      ],
      "type": "VEC3"
    },
    {
      "bufferView": 2,
      "byteOffset": 978168,
      "componentType": 5126,
      "count": 18,
      "max": [
        0.7071068286895752,
        1.0,
        0.7071068286895752
      ],
      "min": [
        -0.7071068286895752,
        -1.0,
        -0.7071068286895752
      ],
      "type": "VEC3"
    },
    {
      "bufferView": 1,
      "byteOffset": 325984,
      "componentType": 5126,
      "count": 18,
      "max": [
        1.0,
        1.0
      ],
      "min": [
        0.0,
        0.0
      ],
      "type": "VEC2"
    },
    {
      "bufferView": 0,
      "byteOffset": 252408,
      "componentType": 5125,
      "count": 36,
      "type": "SCALAR"
    },
    {
      "bufferView": 2,
      "byteOffset": 978384,
      "componentType": 5126,
      "count": 582,
      "max": [
        0.22425879538059235,
        0.00800000037997961,
        0.2634216248989105
      ],
      "min": [
        -0.20774123072624207,
        -0.00800000037997961,
        -0.4275784194469452
      ],
      "type": "VEC3"
    },
    {
      "bufferView": 2,
      "byteOffset": 985368,
      "componentType": 5126,
      "count": 582,
      "max": [
        0.9999948740005493,
        1.0,
        0.999964714050293
      ],
      "min": [
        -0.9999539852142334,
        -1.0,
        -0.9999663829803467
      ],
      "type": "VEC3"
    },
    {
      "bufferView": 1,
      "byteOffset": 326128,
      "componentType": 5126,
      "count": 582,
      "max": [
        1.0,
        1.0
      ],
      "min": [
        0.0,
        0.0
      ],
      "type": "VEC2"
    },
    {
      "bufferView": 0,
      "byteOffset": 252552,
      "componentType": 5125,
      "count": 1728,
      "type": "SCALAR"
    },
    {
      "bufferView": 2,
      "byteOffset": 992352,
      "componentType": 5126,
      "count": 974,
      "max": [
        0.17525270581245422,
        0.00800000037997961,
        0.2677688002586365
      ],
      "min": [
        -0.18474730849266052,
        -0.00800000037997961,
        -0.43223124742507935
      ],
      "type": "VEC3"
    },
    {
      "bufferView": 2,
      "byteOffset": 1004040,
      "componentType": 5126,
      "count": 974,
      "max": [
        0.9999711513519287,
        1.0,
        0.9999768733978271
      ],
      "min": [
        -1.0,
        -1.0,
        -0.9999704360961914
      ],
      "type": "VEC3"
    },
    {
      "bufferView": 1,
      "byteOffset": 330784,
      "componentType": 5126,
      "count": 974,
      "max": [
        1.0,
        1.0
      ],
      "min": [
        0.0,
        0.0
      ],
      "type": "VEC2"
    },
    {
      "bufferView": 0,
      "byteOffset": 259464,
      "componentType": 5125,
      "count": 2904,
      "type": "SCALAR"
    },
    {
      "bufferView": 2,
      "byteOffset": 1015728,
      "componentType": 5126,
      "count": 64,
      "max": [
        0.23406372964382172,
        0.00800000037997961,
        0.26234787702560425
      ],
      "min": [
        -0.22593627870082855,
        -0.00800000037997961,
        -0.42865216732025146
      ],
      "type": "VEC3"
    },
    {
      "bufferView": 2,
      "byteOffset": 1016496,
      "componentType": 5126,
      "count": 64,
      "max": [
        0.901820957660675,
        1.0,
        0.901820957660675
      ],
      "min": [
        -0.9418663382530212,
        -1.0,
        -0.9035911560058594
      ],
      "type": "VEC3"
    },
    {
      "bufferView": 1,
      "byteOffset": 338576,
      "componentType": 5126,
      "count": 64,
      "max": [
        1.0,
        1.0
      ],
      "min": [
        0.0,
        0.0
      ],
      "type": "VEC2"
    },
    {
      "bufferView": 0,
      "byteOffset": 271080,
      "componentType": 5125,
      "count": 168,
      "type": "SCALAR"
    },
    {
      "bufferView": 2,
      "byteOffset": 1017264,
      "componentType": 5126,
      "count": 506,
      "max": [
        0.1874631643295288,
        0.00800000037997961,
        0.26329493522644043
      ],
      "min": [
        -0.20053686201572418,
        -0.00800000037997961,
        -0.4277051091194153
      ],
      "type": "VEC3"
    },
    {
      "bufferView": 2,
      "byteOffset": 1023336,
      "componentType": 5126,
      "count": 506,
      "max": [
        1.0,
        1.0,
        0.9999194145202637
      ],
      "min": [
        -0.9999979734420776,
        -1.0,
        -0.9999539852142334
      ],
      "type": "VEC3"
    },
    {
      "bufferView": 1,
      "byteOffset": 339088,
      "componentType": 5126,
      "count": 506,
      "max": [
        1.0,
        1.0
      ],
      "min": [
        0.0,
        0.0
      ],
      "type": "VEC2"
    },
    {
      "bufferView": 0,
      "byteOffset": 271752,
      "componentType": 5125,
      "count": 1500,
      "type": "SCALAR"
    },
    {
      "bufferView": 2,
      "byteOffset": 1029408,
      "componentType": 5126,
      "count": 180,
      "max": [
        0.8762387037277222,
        -0.0030008519534021616,
        0.10791312903165817
      ],
      "min": [
        -0.8762583136558533,
        -0.0030008519534021616,
        -0.08905620127916336
      ],
      "type": "VEC3"
    },
    {
      "bufferView": 2,
      "byteOffset": 1031568,
      "componentType": 5126,
      "count": 180,
      "max": [
        0.0,
        1.0,
        -0.0
      ],
      "min": [
        0.0,
        1.0,
        -0.0
      ],
      "type": "VEC3"
    },
    {
      "bufferView": 1,
      "byteOffset": 343136,
      "componentType": 5126,
      "count": 180,
      "max": [
        0.275169312953949,
        1.0
      ],
      "min": [
        0.16618317365646362,
        1.0
      ],
      "type": "VEC2"
    },
    {
      "bufferView": 0,
      "byteOffset": 277752,
      "componentType": 5125,
      "count": 270,
      "type": "SCALAR"
    },
    {
      "bufferView": 2,
      "byteOffset": 1033728,
      "componentType": 5126,
      "count": 1880,
      "max": [
        0.8634169101715088,
        0.008818496018648148,
        0.10791312903165817
      ],
      "min": [
        -0.8634364008903503,
        -0.0030008519534021616,
        -0.08905620127916336
      ],
      "type": "VEC3"
    },
    {
      "bufferView": 2,
      "byteOffset": 1056288,
      "componentType": 5126,
      "count": 1880,
      "max": [
        1.0,
        0.9994855523109436,
        0.36019161343574524
      ],
      "min": [
        -1.0,
        0.0,
        -0.9574180841445923
      ],
      "type": "VEC3"
    },
    {
      "bufferView": 1,
      "byteOffset": 344576,
      "componentType": 5126,
      "count": 1880,
      "max": [
        0.2687583565711975,
        1.0
      ],
      "min": [
        0.0,
        1.0
      ],
      "type": "VEC2"
    },
    {
      "bufferView": 0,
      "byteOffset": 278832,
      "componentType": 5125,
      "count": 4560,
      "type": "SCALAR"
    },
    {
      "bufferView": 2,
      "byteOffset": 1078848,
      "componentType": 5126,
      "count": 18,
      "max": [
        0.07738012075424194,
        0.023000001907348633,
        0.2634216248989105
      ],
      "min": [
        -0.020619884133338928,
        -0.023000001907348633,
        -0.4185784161090851
      ],
      "type": "VEC3"
    },
    {
      "bufferView": 2,
      "byteOffset": 1079064,
      "componentType": 5126,
      "count": 18,
      "max": [
        0.7071068286895752,
        1.0,
        0.7071068286895752
      ],
      "min": [
        -0.7071068286895752,
        -1.0,
        -0.7071068286895752
      ],
      "type": "VEC3"
    },
    {
      "bufferView": 1,
      "byteOffset": 359616,
      "componentType": 5126,
      "count": 18,
      "max": [
        1.0,
        1.0
      ],
      "min": [
        0.0,
        0.0
      ],
      "type": "VEC2"
    },
    {
      "bufferView": 0,
      "byteOffset": 297072,
      "componentType": 5125,
      "count": 36,
      "type": "SCALAR"
    },
    {
      "bufferView": 2,
      "byteOffset": 1079280,
      "componentType": 5126,
      "count": 358,
      "max": [
        0.22426053881645203,
        0.023000001907348633,
        0.2634216248989105
      ],
      "min": [
        -0.2077394723892212,
        -0.023000001907348633,
        -0.4275784194469452
      ],
      "type": "VEC3"
    },
    {
      "bufferView": 2,
      "byteOffset": 1083576,
      "componentType": 5126,
      "count": 358,
      "max": [
        0.999985933303833,
        1.0,
        0.9999048709869385
      ],
      "min": [
        -0.9998736381530762,
        -1.0,
        -0.9999061822891235
      ],
      "type": "VEC3"
    },
    {
      "bufferView": 1,
      "byteOffset": 359760,
      "componentType": 5126,
      "count": 358,
      "max": [
        1.0,
        1.0
      ],
      "min": [
        0.0,
        0.0
      ],
      "type": "VEC2"
    },
    {
      "bufferView": 0,
      "byteOffset": 297216,
      "componentType": 5125,
      "count": 1056,
      "type": "SCALAR"
    },
    {
      "bufferView": 2,
      "byteOffset": 1087872,
      "componentType": 5126,
      "count": 590,
      "max": [
        0.17525270581245422,
        0.023000001907348633,
        0.2677688002586365
      ],
      "min": [
        -0.18474730849266052,
        -0.023000001907348633,
        -0.43223124742507935
      ],
      "type": "VEC3"
    },
    {
      "bufferView": 2,
      "byteOffset": 1094952,
      "componentType": 5126,
      "count": 590,
      "max": [
        0.9999194145202637,
        1.0,
        0.9999048709869385
      ],
      "min": [
        -1.0,
        -1.0,
        -0.999915599822998
      ],
      "type": "VEC3"
    },
    {
      "bufferView": 1,
      "byteOffset": 362624,
      "componentType": 5126,
      "count": 590,
      "max": [
        1.0,
        1.0
      ],
      "min": [
        0.0,
        0.0
      ],
      "type": "VEC2"
    },
    {
      "bufferView": 0,
      "byteOffset": 301440,
      "componentType": 5125,
      "count": 1752,
      "type": "SCALAR"
    },
    {
      "bufferView": 2,
      "byteOffset": 1102032,
      "componentType": 5126,
      "count": 64,
      "max": [
        0.23406372964382172,
        0.023000001907348633,
        0.26234787702560425
      ],
      "min": [
        -0.22593627870082855,
        -0.023000001907348633,
        -0.42865216732025146
      ],
      "type": "VEC3"
    },
    {
      "bufferView": 2,
      "byteOffset": 1102800,
      "componentType": 5126,
      "count": 64,
      "max": [
        0.901820957660675,
        1.0,
        0.901820957660675
      ],
      "min": [
        -0.9418663382530212,
        -1.0,
        -0.9035911560058594
      ],
      "type": "VEC3"
    },
    {
      "bufferView": 1,
      "byteOffset": 367344,
      "componentType": 5126,
      "count": 64,
      "max": [
        1.0,
        1.0
      ],
      "min": [
        0.0,
        0.0
      ],
      "type": "VEC2"
    },
    {
      "bufferView": 0,
      "byteOffset": 308448,
      "componentType": 5125,
      "count": 168,
      "type": "SCALAR"
    },
    {
      "bufferView": 2,
      "byteOffset": 1103568,
      "componentType": 5126,
      "count": 314,
      "max": [
        0.1874631643295288,
        0.023000001907348633,
        0.26329493522644043
      ],
      "min": [
        -0.20053686201572418,
        -0.023000001907348633,
        -0.4277051091194153
      ],
      "type": "VEC3"
    },
    {
      "bufferView": 2,
      "byteOffset": 1107336,
      "componentType": 5126,
      "count": 314,
      "max": [
        1.0,
        1.0,
        0.9997773766517639
      ],
      "min": [
        -0.9999939203262329,
        -1.0,
        -0.9998736381530762
      ],
      "type": "VEC3"
    },
    {
      "bufferView": 1,
      "byteOffset": 367856,
      "componentType": 5126,
      "count": 314,
      "max": [
        1.0,
        1.0
      ],
      "min": [
        0.0,
        0.0
      ],
      "type": "VEC2"
    },
    {
      "bufferView": 0,
      "byteOffset": 309120,
      "componentType": 5125,
      "count": 924,
      "type": "SCALAR"
    }
  ],
  "asset": {
    "extras": {
      "author": "arieffitrah (https://sketchfab.com/arieffitrah)",
      "license": "CC-BY-4.0 (http://creativecommons.org/licenses/by/4.0/)",
      "source": "https://sketchfab.com/3d-models/tl-sf1005d-90966bd409204294918c68c11c7da831",
      "title": "TL-SF1005D"
    },
    "generator": "Sketchfab-15.31.0",
    "version": "2.0"
  },
  "bufferViews": [
    {
      "buffer": 0,
      "byteLength": 312816,
      "name": "floatBufferViews",
      "target": 34963
    },
    {
      "buffer": 0,
      "byteLength": 370368,
      "byteOffset": 312816,
      "byteStride": 8,
      "name": "floatBufferViews",
      "target": 34962
    },
    {
      "buffer": 0,
      "byteLength": 1111104,
      "byteOffset": 683184,
      "byteStride": 12,
      "name": "floatBufferViews",
      "target": 34962
    }
  ],
  "buffers": [
    {
      "byteLength": 1794288,
      "uri": "scene.bin"
    }
  ],
  "extensionsUsed": [
    "KHR_materials_specular",
    "KHR_materials_emissive_strength"
  ],
  "materials": [
    {
      "doubleSided": true,
      "name": "material_0",
      "pbrMetallicRoughness": {
        "metallicFactor": 0.0,
        "roughnessFactor": 0.6
      }
    },
    {
      "doubleSided": true,
      "name": "White",
      "pbrMetallicRoughness": {
        "metallicFactor": 0.0,
        "roughnessFactor": 0.5
      }
    },
    {
      "doubleSided": true,
      "name": "Material.004",
      "pbrMetallicRoughness": {
        "baseColorFactor": [
          0.207916,
          0.207916,
          0.207916,
          1.0
        ],
        "metallicFactor": 0.0,
        "roughnessFactor": 0.5
      }
    },
    {
      "doubleSided": true,
      "extensions": {
        "KHR_materials_specular": {
          "specularColorFactor": [
            1.0,
            1.0,
            1.0
          ],
          "specularFactor": 1.0
        }
      },
      "name": "Black",
      "pbrMetallicRoughness": {
        "baseColorFactor": [
          0.00719353,
          0.00719353,
          0.00719353,
          1.0
        ],
        "metallicFactor": 0.0,
        "roughnessFactor": 0.5
      }
    },
    {
      "doubleSided": true,
      "emissiveFactor": [
        0.496241,
        1.0,
        0.0461211
      ],
      "extensions": {
        "KHR_materials_emissive_strength": {
          "emissiveStrength": 2.26362
        }
      },
      "name": "Lamp",
      "pbrMetallicRoughness": {
        "baseColorFactor": [
          0.257991,
          0.8,
          0.0519907,
          1.0
        ],
        "metallicFactor": 0.0,
        "roughnessFactor": 0.0
      }
    },
    {
      "doubleSided": true,
      "name": "Material.008",
      "pbrMetallicRoughness": {
        "baseColorFactor": [
          0.0188483,
          0.0188483,
          0.0188483,
          1.0
        ],
        "metallicFactor": 0.0,
        "roughnessFactor": 0.5
      }
    },
    {
      "doubleSided": true,
      "name": "Material.007",
      "pbrMetallicRoughness": {
        "baseColorFactor": [
          0.8,
          0.669547,
          0.0347902,
          1.0
        ],
        "metallicFactor": 0.866142,
        "roughnessFactor": 0.397638
      }
    }
  ],
  "meshes": [
    {
      "name": "Object_0",
      "primitives": [
        {
          "attributes": {
            "NORMAL": 1,
            "POSITION": 0,
            "TEXCOORD_0": 2
          },
          "indices": 3,
          "material": 1,
          "mode": 4
        }
      ]
    },
    {
      "name": "Object_1",
      "primitives": [
        {
          "attributes": {
            "NORMAL": 5,
            "POSITION": 4,
            "TEXCOORD_0": 6
          },
          "indices": 7,
          "material": 2,
          "mode": 4
        }
      ]
    },
    {
      "name": "Object_2",
      "primitives": [
        {
          "attributes": {
            "NORMAL": 9,
            "POSITION": 8,
            "TEXCOORD_0": 10
          },
          "indices": 11,
          "material": 3,
          "mode": 4
        }
      ]
    },
    {
      "name": "Object_3",
      "primitives": [
        {
          "attributes": {
            "NORMAL": 13,
            "POSITION": 12,
            "TEXCOORD_0": 14
          },
          "indices": 15,
          "material": 0,
          "mode": 4
        }
      ]
    },
    {
      "name": "Object_4",
      "primitives": [
        {
          "attributes": {
            "NORMAL": 17,
            "POSITION": 16,
            "TEXCOORD_0": 18
          },
          "indices": 19,
          "material": 1,
          "mode": 4
        }
      ]
    },
    {
      "name": "Object_5",
      "primitives": [
        {
          "attributes": {
            "NORMAL": 21,
            "POSITION": 20,
            "TEXCOORD_0": 22
          },
          "indices": 23,
          "material": 2,
          "mode": 4
        }
      ]
    },
    {
      "name": "Object_6",
      "primitives": [
        {
          "attributes": {
            "NORMAL": 25,
            "POSITION": 24,
            "TEXCOORD_0": 26
          },
          "indices": 27,
          "material": 4,
          "mode": 4
        }
      ]
    },
    {
      "name": "Object_7",
      "primitives": [
        {
          "attributes": {
            "NORMAL": 29,
            "POSITION": 28,
            "TEXCOORD_0": 30
          },
          "indices": 31,
          "material": 5,
          "mode": 4
        }
      ]
    },
    {
      "name": "Object_8",
      "primitives": [
        {
          "attributes": {
            "NORMAL": 33,
            "POSITION": 32,
            "TEXCOORD_0": 34
          },
          "indices": 35,
          "material": 4,
          "mode": 4
        }
      ]
    },
    {
      "name": "Object_9",
      "primitives": [
        {
          "attributes": {
            "NORMAL": 37,
            "POSITION": 36,
            "TEXCOORD_0": 38
          },
          "indices": 39,
          "material": 4,
          "mode": 4
        }
      ]
    },
    {
      "name": "Object_10",
      "primitives": [
        {
          "attributes": {
            "NORMAL": 41,
            "POSITION": 40,
            "TEXCOORD_0": 42
          },
          "indices": 43,
          "material": 2,
          "mode": 4
        }
      ]
    },
    {
      "name": "Object_11",
      "primitives": [
        {
          "attributes": {
            "NORMAL": 45,
            "POSITION": 44,
            "TEXCOORD_0": 46
          },
          "indices": 47,
          "material": 2,
          "mode": 4
        }
      ]
    },
    {
      "name": "Object_12",
      "primitives": [
        {
          "attributes": {
            "NORMAL": 49,
            "POSITION": 48,
            "TEXCOORD_0": 50
          },
          "indices": 51,
          "material": 2,
          "mode": 4
        }
      ]
    },
    {
      "name": "Object_13",
      "primitives": [
        {
          "attributes": {
            "NORMAL": 53,
            "POSITION": 52,
            "TEXCOORD_0": 54
          },
          "indices": 55,
          "material": 2,
          "mode": 4
        }
      ]
    },
    {
      "name": "Object_14",
      "primitives": [
        {
          "attributes": {
            "NORMAL": 57,
            "POSITION": 56,
            "TEXCOORD_0": 58
          },
          "indices": 59,
          "material": 2,
          "mode": 4
        }
      ]
    },
    {
      "name": "Object_15",
      "primitives": [
        {
          "attributes": {
            "NORMAL": 61,
            "POSITION": 60,
            "TEXCOORD_0": 62
          },
          "indices": 63,
          "material": 2,
          "mode": 4
        }
      ]
    },
    {
      "name": "Object_16",
      "primitives": [
        {
          "attributes": {
            "NORMAL": 65,
            "POSITION": 64,
            "TEXCOORD_0": 66
          },
          "indices": 67,
          "material": 6,
          "mode": 4
        }
      ]
    },
    {
      "name": "Object_17",
      "primitives": [
        {
          "attributes": {
            "NORMAL": 69,
            "POSITION": 68,
            "TEXCOORD_0": 70
          },
          "indices": 71,
          "material": 0,
          "mode": 4
        }
      ]
    },
    {
      "name": "Object_18",
      "primitives": [
        {
          "attributes": {
            "NORMAL": 73,
            "POSITION": 72,
            "TEXCOORD_0": 74
          },
          "indices": 75,
          "material": 0,
          "mode": 4
        }
      ]
    },
    {
      "name": "Object_19",
      "primitives": [
        {
          "attributes": {
            "NORMAL": 77,
            "POSITION": 76,
            "TEXCOORD_0": 78
          },
          "indices": 79,
          "material": 0,
          "mode": 4
        }
      ]
    },
    {
      "name": "Object_20",
      "primitives": [
        {
          "attributes": {
            "NORMAL": 81,
            "POSITION": 80,
            "TEXCOORD_0": 82
          },
          "indices": 83,
          "material": 0,
          "mode": 4
        }
      ]
    },
    {
      "name": "Object_21",
      "primitives": [
        {
          "attributes": {
            "NORMAL": 85,
            "POSITION": 84,
            "TEXCOORD_0": 86
          },
          "indices": 87,
          "material": 0,
          "mode": 4
        }
      ]
    }
  ],
  "nodes": [
    {
      "children": [
        1
      ],
      "matrix": [
        1.0,
        0.0,
        0.0,
        0.0,
        0.0,
        2.220446049250313e-16,
        -1.0,
        0.0,
        0.0,
        1.0,
        2.220446049250313e-16,
        0.0,
        0.0,
        0.0,
        0.0,
        1.0
      ],
      "name": "Sketchfab_model"
    },
    {
      "children": [
        2
      ],
      "name": "root"
    },
    {
      "children": [
        3,
        7,
        9,
        14,
        16,
        18,
        20,
        22,
        24,
        26,
        28,
        31,
        33,
        35,
        37,
        39
      ],
      "matrix": [
        1.0,
        0.0,
        0.0,
        0.0,
        0.0,
        2.220446049250313e-16,
        1.0,
        0.0,
        0.0,
        -1.0,
        2.220446049250313e-16,
        0.0,
        0.0,
        0.0,
        0.0,
        1.0
      ],
      "name": "GLTF_SceneRootNode"
    },
    {
      "children": [
        4,
        5,
        6
      ],
      "matrix": [
        0.5021815896034241,
        0.0,
        0.0,
        0.0,
        0.0,
        0.5021815896034241,
        0.0,
        0.0,
        0.0,
        0.0,
        0.3346964716911316,
        0.0,
        -3.066929817199707,
        0.10185590386390686,
        0.008454766124486923,
        1.0
      ],
      "name": "Plane.005_0"
    },
    {
      "mesh": 0,
      "name": "Object_4"
    },
    {
      "mesh": 1,
      "name": "Object_5"
    },
    {
      "mesh": 2,
      "name": "Object_6"
    },
    {
      "children": [
        8
      ],
      "matrix": [
        0.0,
        -0.002009093761444092,
        -0.0,
        0.0,
        0.0378420427441597,
        0.0,
        0.0,
        0.0,
        0.0,
        0.0,
        0.002009093761444092,
        0.0,
        -2.632540702819824,
        0.106942318379879,
        -0.12531670928001404,
        1.0
      ],
      "name": "Cylinder.003_1"
    },
    {
      "mesh": 3,
      "name": "Object_8"
    },
    {
      "children": [
        10,
        11,
        12,
        13
      ],
      "matrix": [
        0.5021815896034241,
        0.0,
        0.0,
        0.0,
        0.0,
        0.5021815896034241,
        0.0,
        0.0,
        0.0,
        0.0,
        0.3346964716911316,
        0.0,
        -3.0720157623291016,
        0.09120429307222366,
        0.333640456199646,
        1.0
      ],
      "name": "Plane.009_2"
    },
    {
      "mesh": 4,
      "name": "Object_10"
    },
    {
      "mesh": 5,
      "name": "Object_11"
    },
    {
      "mesh": 6,
      "name": "Object_12"
    },
    {
      "mesh": 7,
      "name": "Object_13"
    },
    {
      "children": [
        15
      ],
      "matrix": [
        0.057129982858896255,
        0.0,
        0.0,
        0.0,
        0.0,
        0.021211951971054077,
        0.0,
        0.0,
        0.0,
        0.0,
        0.005999363958835602,
        0.0,
        -3.424537420272827,
        0.21317380666732788,
        -0.24372899532318115,
        1.0
      ],
      "name": "Plane.006_3"
    },
    {
      "mesh": 8,
      "name": "Object_15"
    },
    {
      "children": [
        17
      ],
      "matrix": [
        0.01473232451826334,
        0.0,
        0.0,
        0.0,
        0.0,
        0.021211951971054077,
        0.0,
        0.0,
        0.0,
        0.0,
        0.005999363958835602,
        0.0,
        -3.2850115299224854,
        0.21317382156848907,
        -0.24372899532318115,
        1.0
      ],
      "name": "Plane.010_4"
    },
    {
      "mesh": 9,
      "name": "Object_17"
    },
    {
      "children": [
        19
      ],
      "matrix": [
        0.04128928855061531,
        0.0,
        0.0,
        0.0,
        0.0,
        0.0,
        0.04128928855061531,
        0.0,
        0.0,
        -0.04128928855061531,
        0.0,
        0.0,
        -2.794611930847168,
        0.03249587118625641,
        0.3678695559501648,
        1.0
      ],
      "name": "Text_5"
    },
    {
      "mesh": 10,
      "name": "Object_19"
    },
    {
      "children": [
        21
      ],
      "matrix": [
        0.04128928855061531,
        0.0,
        0.0,
        0.0,
        0.0,
        0.0,
        0.04128928855061531,
        0.0,
        0.0,
        -0.04128928855061531,
        0.0,
        0.0,
        -2.936070203781128,
        0.03249587118625641,
        0.3678695559501648,
        1.0
      ],
      "name": "Text.001_6"
    },
    {
      "mesh": 11,
      "name": "Object_21"
    },
    {
      "children": [
        23
      ],
      "matrix": [
        0.04128928855061531,
        0.0,
        0.0,
        0.0,
        0.0,
        0.0,
        0.04128928855061531,
        0.0,
        0.0,
        -0.04128928855061531,
        0.0,
        0.0,
        -3.075591564178467,
        0.03230375796556473,
        0.3678695559501648,
        1.0
      ],
      "name": "Text.002_7"
    },
    {
      "mesh": 12,
      "name": "Object_23"
    },
    {
      "children": [
        25
      ],
      "matrix": [
        0.04128928855061531,
        0.0,
        0.0,
        0.0,
        0.0,
        0.0,
        0.04128928855061531,
        0.0,
        0.0,
        -0.04128928855061531,
        0.0,
        0.0,
        -3.2149696350097656,
        0.03245153650641441,
        0.3678695559501648,
        1.0
      ],
      "name": "Text.003_8"
    },
    {
      "mesh": 13,
      "name": "Object_25"
    },
    {
      "children": [
        27
      ],
      "matrix": [
        0.04128928855061531,
        0.0,
        0.0,
        0.0,
        0.0,
        0.0,
        0.04128928855061531,
        0.0,
        0.0,
        -0.04128928855061531,
        0.0,
        0.0,
        -3.357897996902466,
        0.032119035720825195,
        0.3678695559501648,
        1.0
      ],
      "name": "Text.004_9"
    },
    {
      "mesh": 14,
      "name": "Object_27"
    },
    {
      "children": [
        29,
        30
      ],
      "matrix": [
        0.36602896451950073,
        0.0,
        0.0,
        0.0,
        0.0,
        0.5021815896034241,
        0.0,
        0.0,
        0.0,
        0.0,
        0.2876071333885193,
        0.0,
        -3.0715184211730957,
        0.08273663371801376,
        0.3265816569328308,
        1.0
      ],
      "name": "Plane.011_10"
    },
    {
      "mesh": 15,
      "name": "Object_29"
    },
    {
      "mesh": 16,
      "name": "Object_30"
    },
    {
      "children": [
        32
      ],
      "matrix": [
        -0.017505308613181045,
        0.0,
        1.530362683739872e-09,
        0.0,
        -0.0,
        0.017505308613181114,
        0.0,
        0.0,
        -1.530362683739872e-09,
        0.0,
        -0.017505308613181045,
        0.0,
        -3.223667860031128,
        0.21491345763206482,
        -0.25755056738853455,
        1.0
      ],
      "name": "Text.005_11"
    },
    {
      "mesh": 17,
      "name": "Object_32"
    },
    {
      "children": [
        34
      ],
      "matrix": [
        -0.017505308613181045,
        0.0,
        1.530362683739872e-09,
        0.0,
        -0.0,
        0.017505308613181114,
        0.0,
        0.0,
        -1.530362683739872e-09,
        0.0,
        -0.017505308613181045,
        0.0,
        -3.25402569770813,
        0.21491345763206482,
        -0.25755056738853455,
        1.0
      ],
      "name": "Text.006_12"
    },
    {
      "mesh": 18,
      "name": "Object_34"
    },
    {
      "children": [
        36
      ],
      "matrix": [
        -0.017505308613181045,
        0.0,
        1.530362683739872e-09,
        0.0,
        -0.0,
        0.017505308613181114,
        0.0,
        0.0,
        -1.530362683739872e-09,
        0.0,
        -0.017505308613181045,
        0.0,
        -3.2846226692199707,
        0.21491345763206482,
        -0.2576320171356201,
        1.0
      ],
      "name": "Text.007_13"
    },
    {
      "mesh": 19,
      "name": "Object_36"
    },
    {
      "children": [
        38
      ],
      "matrix": [
        -0.017505308613181045,
        0.0,
        1.530362683739872e-09,
        0.0,
        -0.0,
        0.017505308613181114,
        0.0,
        0.0,
        -1.530362683739872e-09,
        0.0,
        -0.017505308613181045,
        0.0,
        -3.3148388862609863,
        0.21491345763206482,
        -0.2575693726539612,
        1.0
      ],
      "name": "Text.008_14"
    },
    {
      "mesh": 20,
      "name": "Object_38"
    },
    {
      "children": [
        40
      ],
      "matrix": [
        -0.017505308613181045,
        0.0,
        1.530362683739872e-09,
        0.0,
        -0.0,
        0.017505308613181114,
        0.0,
        0.0,
        -1.530362683739872e-09,
        0.0,
        -0.017505308613181045,
        0.0,
        -3.3450608253479004,
        0.21491345763206482,
        -0.257710337638855,
        1.0
      ],
      "name": "Text.009_15"
    },
    {
      "mesh": 21,
      "name": "Object_40"
    }
  ],
  "scene": 0,
  "scenes": [
    {
      "name": "Sketchfab_Scene",
      "nodes": [
        0
      ]
    }
  ]
}
